# xmcd
#
# Track frame offsets: 
#        150
#        24405
#        35895
#        50962
#        65283
#        88472
#        126940
#        138960
#        153316
#        174545
#        199553
#        222965
#        239413
#        261369
#        273754
#        285608
#
# Disc length: 4093 seconds
#
# Revision: 0
# Processed by: cddbd v1.5.2PL0 Copyright (c) Steve Scherf et al.
# Submitted via: ExactAudioCopy v0.99pb5
#
DISCID=f50ffb10
DTITLE=B. B. King - Playing The Blues
DYEAR=2010
DGENRE=Blues
TTITLE0=The Thrill Is Gone
TTITLE1=Paying The Cost To Be The Boss
TTITLE2=In The Midnight Hour
TTITLE3=Ain't Nobody Home
TTITLE4=Don't Answer The Door
TTITLE5=Why I Sing The Blues
TTITLE6=How Blue Can You Get?
TTITLE7=Sweet Little Angel
TTITLE8=Everyday I Have The Blues
TTITLE9=So Excited
TTITLE10=The Blues Come Over Me
TTITLE11=My Lucille
TTITLE12=Chains And Things
TTITLE13=Broken Heart
TTITLE14=Help The Poor
TTITLE15=See That My Grave Is Kept Clean
EXTD=
EXTT0=
EXTT1=
EXTT2=
EXTT3=
EXTT4=
EXTT5=
EXTT6=
EXTT7=
EXTT8=
EXTT9=
EXTT10=
EXTT11=
EXTT12=
EXTT13=
EXTT14=
EXTT15=
PLAYORDER=
